<svg version="1" xmlns="http://www.w3.org/2000/svg" width="933.333" height="933.333" viewBox="0 0 700.000000 700.000000"><path d="M24.5 147.8c-11 1.8-19.9 9-23.4 19.2-.3.8-.7 71.7-.8 157.6C0 498.8-.6 485.7 7.1 494.4c6.6 7.5 11.1 9 26.9 9.3 7.4.1 13.7.2 14 .3.3 0 .6 6 .6 13.2.1 11.4.4 14 2.3 18.3 9.8 22.2 40.4 22.2 50.2 0 1.9-4.3 2.2-6.9 2.3-18.4l.1-13.4 22.5.1c12.4 0 23.4.1 24.5.1 1.9.1 2 .8 1.9 12.4 0 14 1.2 19.1 5.8 25.2 4.2 5.4 8.2 8.1 14.9 9.7 6.1 1.5 6.8 1.5 12.4.4 8.8-1.7 18.3-10.3 20.5-18.5.5-2 1-9.3 1.1-16.4.2-12.1.3-12.7 2.3-12.8 2.7-.1 146.8-.1 148.1 0 .6.1 1 5.3 1.1 13.4.1 11.3.5 14.1 2.3 18.3 8 18 31.6 22.3 44.8 8.1 6.4-7 7.6-10.9 7.7-25.7.1-7.1.5-13.2.8-13.6.9-.8 46.6-1 47.4-.1.4.3.8 6.6.9 13.9.4 15.2 1.4 18.5 7.6 25.3 12.3 13.3 34.1 10.9 43.4-4.9 2.9-5 4.1-12.1 3.9-24.8l-.1-9.8 2.8-.1c1.6 0 12.6-.1 24.4-.2l21.5-.2v5c.2 17.3.7 23.2 2.7 27.5 8.6 18.6 33.7 21.9 46.4 5.9 4.6-5.8 5.9-11.4 5.9-25.6 0-6.7.3-12.4.8-12.4.4-.1 1.7-.3 2.9-.4 13.6-1.4 29-6.9 38.7-13.9 5.9-4.2 7.1-5.2 11.7-9.7 10.3-10.2 18.1-23.5 22.1-37.5 3.2-11.3 3.2-31.5 0-42.8-2.9-10.2-9.2-23.1-13.7-28.2-.5-.7-2.5-3.1-4.4-5.4-6.4-7.8-16.5-14.6-63.1-42.5-25.6-15.3-47.4-28.4-48.5-29-1.1-.6-3.8-2.2-6-3.6s-5.6-3.4-7.5-4.5c-1.9-1-3.9-2.2-4.5-2.7-.5-.4-8.1-5-16.8-10.2l-15.9-9.4-34.1 34.1c-18.7 18.7-35.4 35-37.1 36.3-13.1 9.7-32.9 4.2-40.2-11.3-2.3-4.8-2.6-6.5-2.2-12.6.3-4.4 1.3-8.6 2.5-11.1 1.2-2.3 14.9-16.8 32.3-34.2l30.2-30.2-3.9-2.4c-2.1-1.3-9.2-5.6-15.9-9.5l-12-7.2-26.5 26.4c-29.4 29.5-32.5 31.9-42.7 32.2-8.1.3-14.1-1.8-19.8-6.9-8.7-8-11.4-21.8-6.3-32 1.3-2.5 11-13.1 24.2-26.4 13.3-13.4 21.7-22.6 21.2-23.1-1.1-1-50.5-30.5-57.6-34.4-2.5-1.4-6.1-2.9-8-3.4-4.7-1-74.2-1.2-80.4-.1-12.5 2.1-21.4 12-22.8 25.2-.7 6.8-1.9 9.6-5.9 13.6-10 10.2-22.5 14.7-40.4 14.7-15.5.1-30.1-4.9-38.4-13.1-5.3-5.1-6.8-8.3-7.5-15.4-1-9.6-5.3-16.6-13.5-21.8-2.1-1.4-5.4-2.7-7.2-3.1-3.3-.7-76.6-1.2-80.3-.6zM645 425.3c0 .7-1.3 3.9-2.9 7.2-3 6.4-6.6 10.1-13.5 13.8l-4.1 2.2-284.7.3L55 449v-24.9h295c228.9 0 295 .3 295 1.2z"/></svg>